<?xml version="1.0" encoding="utf-8"?>
<!-- Generator: Adobe Illustrator 19.2.1, SVG Export Plug-In . SVG Version: 6.00 Build 0)  -->
<svg version="1.1" id="Layer_1" xmlns="http://www.w3.org/2000/svg" xmlns:xlink="http://www.w3.org/1999/xlink" x="0px" y="0px"
	 viewBox="0 0 41.5 41.7" style="enable-background:new 0 0 41.5 41.7;" xml:space="preserve">
<style type="text/css">
	.st0{fill:#FFFFFF;}
</style>
<g>
	<g>
		<path class="st0" d="M-331.1,199.4c0-127.3,0-254.6,0-381.8c200.3,0,400.6,0,601,0c0,127.3,0,254.6,0,381.8
			C69.6,199.4-130.7,199.4-331.1,199.4z M0,0c0,6.8,0,13.6,0,20.4c4.5,0,9,0,13.6,0c0,7.1,0,14.2,0,21.3c4.2,0,8.2-0.1,12.2,0
			c2.1,0.1,3.7-0.1,4.5-2.6c0.7-2.3,2-4.5,2.9-6.8c1-2.7,2-5.5,2.8-8.2c0.9-2.8,1.8-5.6,2.5-8.5c0.8-3.6,1.5-7.2,2.2-10.8
			C41,3.3,41.2,1.7,41.5,0C27.5,0,13.8,0,0,0z"/>
		<path d="M0,0c13.8,0,27.6,0,41.5,0c-0.3,1.7-0.6,3.3-0.9,4.9c-0.7,3.6-1.3,7.2-2.2,10.8c-0.7,2.9-1.6,5.7-2.5,8.5
			c-0.9,2.8-1.8,5.5-2.8,8.2c-0.9,2.3-2.2,4.5-2.9,6.8c-0.8,2.5-2.4,2.7-4.5,2.6c-4-0.1-8.1,0-12.2,0c0-7.1,0-14.2,0-21.3
			c-4.6,0-9.1,0-13.6,0C0,13.6,0,6.8,0,0z"/>
	</g>
</g>
</svg>
