<?xml version="1.0" encoding="utf-8"?>
<!-- Generator: Adobe Illustrator 19.2.1, SVG Export Plug-In . SVG Version: 6.00 Build 0)  -->
<svg version="1.1" id="Layer_1" xmlns="http://www.w3.org/2000/svg" xmlns:xlink="http://www.w3.org/1999/xlink" x="0px" y="0px"
	 viewBox="0 0 41.6 41.8" style="enable-background:new 0 0 41.6 41.8;" xml:space="preserve">
<style type="text/css">
	.st0{fill:#FFFFFF;}
</style>
<g>
	<g>
		<path d="M29,41.8c-5.1,0-10.2,0-15.4,0c0-7.1,0-14.2,0-21.4c-4.7,0-9.2,0-13.7,0C0,13.6,0,6.8,0,0c13.8,0,27.6,0,41.6,0
			c-0.4,2.6-0.8,5-1.3,7.3c-0.5,2.5-1.1,4.9-1.7,7.4c-0.8,3.2-1.6,6.4-2.5,9.5c-0.7,2.5-1.7,4.9-2.6,7.3c-0.4,1.1-0.8,2.1-1.3,3.1
			C31.2,37.1,30.1,39.4,29,41.8z"/>
		<path class="st0" d="M0,20.4c4.5,0,9,0,13.7,0c0,7.2,0,14.3,0,21.4c-4.6,0-9.1,0-13.7,0C0,34.6,0,27.5,0,20.4z"/>
		<path class="st0" d="M29,41.8c1.1-2.4,2.1-4.7,3.2-7.1c0.5-1,0.9-2.1,1.3-3.1c0.9-2.4,1.8-4.8,2.6-7.3c0.9-3.1,1.7-6.3,2.5-9.5
			c0.6-2.4,1.2-4.9,1.7-7.4C40.9,5,41.2,2.6,41.6,0C27.6,0,13.8,0,0,0c0.3-0.1,0.6-0.2,1-0.2c13.6,0,27.2,0,40.8,0c0,14,0,28,0,42
			C37.5,41.8,33.3,41.8,29,41.8z"/>
	</g>
</g>
</svg>
